<?xml version="1.0" standalone="no"?>
<!DOCTYPE svg PUBLIC "-//W3C//DTD SVG 20010904//EN"
 "http://www.w3.org/TR/2001/REC-SVG-20010904/DTD/svg10.dtd">
<svg version="1.0" xmlns="http://www.w3.org/2000/svg"
 width="1000.000000pt" height="1000.000000pt" viewBox="0 0 1000.000000 1000.000000"
 preserveAspectRatio="xMidYMid meet">
<metadata>
Created by potrace 1.14, written by Peter Selinger 2001-2017
</metadata>
<g transform="translate(0.000000,1000.000000) scale(0.100000,-0.100000)"
fill="#000000" stroke="none">
<path d="M4866 9993 c-1 -2 -25 -5 -52 -8 -27 -3 -85 -12 -129 -20 -44 -9 -91
-17 -105 -19 -47 -7 -320 -83 -370 -103 -8 -4 -17 -7 -20 -8 -49 -12 -298
-110 -400 -158 -195 -90 -462 -233 -568 -306 -15 -10 -74 -49 -132 -87 -58
-38 -112 -74 -120 -81 -8 -6 -53 -40 -100 -74 -47 -35 -87 -66 -90 -69 -3 -3
-41 -34 -85 -70 -44 -36 -93 -77 -110 -92 -201 -180 -388 -373 -525 -543 -36
-44 -68 -82 -71 -85 -6 -6 -80 -105 -122 -165 -71 -100 -178 -268 -227 -355
-29 -52 -60 -106 -69 -120 -8 -14 -14 -28 -13 -32 1 -5 -3 -8 -8 -8 -5 0 -9
-3 -8 -7 0 -5 -26 -64 -59 -133 -76 -158 -83 -176 -125 -285 -19 -49 -39 -99
-43 -110 -5 -11 -9 -22 -10 -25 -1 -3 -16 -50 -34 -105 -18 -55 -35 -107 -37
-115 -2 -8 -13 -49 -24 -90 -25 -91 -70 -275 -75 -313 -3 -15 -7 -37 -9 -50
-17 -85 -26 -136 -25 -144 1 -4 0 -10 -1 -13 -5 -13 -16 -93 -26 -185 -2 -22
-6 -53 -9 -70 -26 -161 -26 -866 -1 -1025 4 -25 17 -135 21 -180 2 -23 21
-144 31 -200 3 -14 7 -38 10 -55 11 -64 55 -254 79 -340 14 -49 27 -98 30
-109 2 -10 16 -55 31 -100 14 -44 27 -85 28 -91 2 -5 9 -26 18 -45 8 -19 20
-53 27 -75 7 -22 21 -59 32 -82 10 -24 19 -50 19 -58 0 -8 4 -15 9 -15 5 0 12
-12 16 -27 9 -36 151 -325 209 -427 25 -44 46 -83 46 -88 0 -4 5 -8 10 -8 6 0
10 -4 10 -10 0 -9 98 -169 110 -180 3 -3 26 -35 50 -72 25 -38 48 -68 53 -68
4 0 7 -5 7 -11 0 -8 50 -79 70 -99 3 -3 23 -27 45 -55 183 -229 425 -475 645
-656 36 -30 69 -59 73 -66 4 -7 13 -13 19 -13 6 0 25 -12 42 -27 46 -40 85
-69 195 -145 53 -37 101 -71 108 -77 7 -6 15 -11 18 -11 3 0 32 -17 63 -38 31
-21 64 -42 72 -45 8 -4 29 -16 45 -27 17 -10 41 -25 55 -33 14 -7 52 -28 85
-47 68 -38 311 -160 319 -160 3 0 31 -12 63 -26 100 -45 123 -55 176 -74 29
-10 88 -31 132 -48 44 -16 83 -30 87 -31 9 -2 14 -3 103 -30 39 -11 90 -25
115 -31 25 -6 54 -13 65 -16 25 -6 217 -41 270 -49 22 -3 76 -8 120 -11 44 -3
90 -7 102 -9 13 -2 25 0 28 4 2 5 -15 48 -40 97 -50 102 -69 144 -119 269 -20
50 -41 99 -46 110 -13 27 -118 345 -124 375 -3 14 -14 53 -25 88 -10 34 -17
62 -15 62 3 0 0 8 -5 19 -6 10 -13 33 -16 52 -3 19 -13 61 -22 94 -8 33 -17
71 -19 85 -4 22 -12 62 -29 150 -18 90 -41 236 -49 310 -4 30 -8 64 -11 76 -5
24 -18 150 -19 182 0 12 -2 22 -5 22 -4 0 -7 35 -8 78 -4 165 -12 315 -17 319
-3 3 -1 14 4 24 6 10 7 20 3 22 -11 7 -2 427 12 592 11 128 16 183 20 210 11
82 19 152 19 173 1 12 4 22 7 22 3 0 5 10 4 23 -1 12 2 40 7 62 5 22 11 54 13
70 3 17 11 66 20 110 9 44 18 94 21 110 3 17 9 43 15 59 5 16 7 31 4 34 -8 8
-162 -154 -250 -263 -22 -27 -47 -56 -55 -65 -8 -8 -23 -27 -33 -40 -9 -14
-35 -50 -57 -80 -23 -30 -67 -95 -100 -145 -33 -49 -68 -102 -80 -117 -11 -14
-20 -29 -20 -32 0 -4 -12 -25 -27 -49 -65 -102 -213 -420 -204 -436 2 -2 -1
-7 -6 -10 -7 -5 -59 -153 -67 -191 -12 -54 -19 -80 -23 -80 -3 0 -64 60 -137
133 -126 127 -296 325 -296 346 0 5 -4 11 -8 13 -12 5 -101 135 -112 164 -5
13 -14 24 -20 24 -5 0 -10 9 -10 19 0 11 -3 21 -8 23 -10 4 -108 204 -139 286
-96 254 -148 476 -179 777 -23 227 -23 833 1 985 3 22 14 126 20 205 1 17 5
44 8 60 3 17 9 55 12 85 3 30 7 62 8 70 2 8 7 38 11 65 4 28 10 60 12 73 6 32
14 73 19 102 3 14 7 34 9 45 13 65 79 342 86 355 4 8 13 40 20 70 7 30 15 60
19 65 3 6 6 15 7 20 4 19 65 200 79 230 7 17 16 41 20 55 27 89 185 433 263
572 17 31 43 77 56 102 13 24 33 58 45 74 11 17 21 33 21 37 0 3 14 26 30 50
17 24 30 48 30 53 0 6 3 12 8 14 7 3 34 41 126 178 45 66 97 134 110 142 6 4
7 8 1 8 -7 0 -7 3 0 8 6 4 37 41 70 82 32 41 64 80 70 87 5 6 24 28 40 48 89
108 217 246 375 404 152 153 225 222 368 350 96 85 111 98 156 134 21 18 52
45 70 61 17 16 41 35 54 44 12 8 22 18 22 22 0 7 -147 9 -154 3z"/>
<path d="M4991 9141 c-8 -6 1 -33 32 -97 68 -137 107 -224 107 -237 0 -7 4
-17 9 -22 10 -11 108 -275 139 -375 54 -176 132 -470 136 -515 1 -11 5 -29 9
-40 3 -11 8 -36 11 -55 3 -19 8 -46 11 -60 3 -14 9 -50 14 -80 6 -30 13 -71
16 -90 4 -19 9 -57 11 -85 3 -27 8 -57 11 -65 5 -15 8 -41 17 -152 3 -32 7
-74 10 -95 6 -41 15 -165 21 -278 5 -93 6 -501 1 -595 -6 -119 -18 -275 -30
-385 -10 -94 -19 -162 -23 -180 -2 -11 -6 -33 -8 -50 -3 -34 -20 -136 -29
-180 -2 -11 -11 -58 -20 -105 -22 -115 -23 -122 -31 -142 -4 -10 -4 -18 0 -18
13 0 239 242 293 315 4 6 21 28 37 50 17 22 38 49 48 60 26 29 198 289 245
370 74 131 127 237 192 390 30 70 86 241 96 295 3 13 7 26 9 28 13 13 362
-364 425 -457 8 -13 25 -35 38 -49 12 -15 28 -39 35 -54 6 -16 15 -28 19 -28
5 0 8 -7 8 -15 0 -8 4 -15 9 -15 5 0 11 -8 15 -17 7 -23 42 -83 56 -97 5 -5
10 -18 10 -28 0 -10 4 -18 9 -18 7 0 70 -127 77 -155 1 -5 11 -30 22 -55 23
-53 34 -81 38 -95 1 -5 16 -52 33 -102 17 -51 32 -103 34 -115 2 -13 6 -30 10
-38 4 -12 18 -80 31 -150 2 -8 6 -31 9 -50 9 -50 23 -152 33 -245 18 -167 23
-551 11 -780 -10 -189 -14 -236 -33 -407 -10 -95 -12 -112 -20 -163 -4 -27 -8
-60 -8 -72 -1 -13 -3 -23 -6 -23 -4 0 -6 -10 -7 -22 -1 -30 -11 -97 -18 -128
-3 -14 -10 -45 -15 -70 -5 -25 -16 -76 -25 -115 -19 -78 -23 -96 -31 -140 -3
-16 -9 -34 -13 -40 -5 -5 -7 -18 -6 -27 2 -10 0 -18 -4 -18 -4 0 -7 -8 -8 -17
-2 -34 -14 -77 -25 -90 -6 -7 -8 -13 -5 -13 4 0 -1 -19 -9 -42 -9 -24 -17 -50
-19 -60 -2 -9 -27 -81 -55 -160 -29 -78 -54 -152 -57 -163 -3 -11 -11 -26 -17
-34 -5 -7 -11 -19 -12 -26 -2 -13 -10 -32 -86 -195 -68 -145 -92 -194 -98
-200 -3 -3 -12 -18 -20 -35 -29 -61 -104 -190 -112 -193 -4 -2 -8 -8 -8 -14 0
-6 -13 -30 -30 -55 -16 -24 -30 -46 -30 -48 0 -17 -272 -393 -369 -511 -22
-27 -46 -56 -53 -65 -179 -216 -532 -572 -788 -795 -25 -21 -47 -41 -50 -44
-3 -4 -50 -44 -105 -90 -55 -47 -106 -91 -114 -98 -12 -12 1 -13 80 -7 138 9
215 19 309 40 44 9 85 16 92 16 4 0 26 6 48 14 22 8 40 12 40 8 0 -3 7 0 15 7
8 7 15 10 15 7 0 -4 18 0 40 8 22 8 41 14 43 13 7 -4 250 81 363 127 273 111
584 271 788 406 32 21 62 39 66 39 5 0 10 3 12 8 2 4 30 25 63 47 33 22 65 43
70 48 6 4 26 20 46 35 20 15 48 36 64 47 52 38 140 109 143 117 2 4 8 8 13 8
5 0 17 8 27 17 10 10 45 41 78 70 188 163 406 385 519 528 22 27 46 56 53 63
7 8 25 30 40 50 15 21 35 46 45 57 10 11 28 36 40 55 12 19 27 41 34 48 7 7
20 26 30 42 9 17 21 30 25 30 4 0 8 5 8 11 0 5 19 38 43 73 50 74 53 79 112
178 25 43 44 79 43 80 -2 2 7 17 20 35 12 17 22 35 22 41 0 5 7 15 15 22 9 7
13 15 10 18 -3 3 3 14 12 25 10 10 18 22 17 26 0 3 19 49 43 101 24 52 49 106
55 120 6 14 15 34 20 44 24 46 161 430 173 486 2 8 18 69 35 135 34 132 38
146 45 190 3 17 8 37 10 45 2 8 7 30 10 48 11 68 15 93 21 125 11 61 14 82 19
132 2 28 6 59 9 71 2 12 7 54 11 95 4 41 9 99 12 129 8 87 8 655 0 755 -11
136 -16 185 -23 240 -3 28 -7 64 -9 80 -1 17 -4 30 -5 30 -1 0 -3 16 -6 35 -6
52 -35 215 -49 280 -3 14 -7 34 -9 45 -8 38 -48 200 -53 215 -4 8 -7 20 -8 25
-2 6 -13 44 -26 85 -12 41 -24 80 -25 85 -4 16 -71 207 -85 240 -7 17 -13 32
-14 35 -1 3 -7 18 -13 33 -7 15 -15 39 -18 52 -3 14 -10 25 -15 25 -5 0 -9 7
-9 15 0 8 -4 23 -9 33 -18 33 -71 152 -70 154 1 2 -12 26 -28 53 -16 28 -35
65 -42 83 -7 17 -17 32 -22 32 -5 0 -9 6 -9 14 0 15 -76 145 -158 271 -47 72
-182 266 -192 275 -3 3 -24 30 -47 60 -23 30 -50 64 -60 75 -10 11 -31 36 -47
55 -153 188 -429 456 -636 618 -85 67 -78 62 -130 102 -25 19 -48 39 -52 45
-5 6 -8 6 -8 0 0 -6 -3 -5 -8 1 -4 6 -65 50 -137 97 -71 48 -135 91 -142 97
-7 5 -15 10 -17 10 -3 0 -34 17 -69 39 -108 66 -436 238 -445 232 -1 -1 -23 9
-50 23 -70 35 -363 149 -412 160 -9 2 -54 15 -100 29 -74 22 -180 49 -244 63
-50 11 -133 26 -152 29 -11 1 -27 6 -34 10 -9 6 -11 4 -5 -5 5 -9 4 -11 -3 -6
-18 11 -48 15 -147 22 -49 3 -95 7 -101 9 -6 2 -16 0 -23 -4z"/>
</g>
</svg>
